<?xml version="1.0" encoding="UTF-8"?>
<!DOCTYPE svg PUBLIC "-//W3C//DTD SVG 1.1//EN" "http://www.w3.org/Graphics/SVG/1.1/DTD/svg11.dtd">
<!-- Creator: CorelDRAW X7 -->
<svg xmlns="http://www.w3.org/2000/svg" xml:space="preserve" width="12.1918mm" height="12.1918mm" version="1.1"
	 style="shape-rendering:geometricPrecision; text-rendering:geometricPrecision; image-rendering:optimizeQuality; fill-rule:evenodd; clip-rule:evenodd"
	 viewBox="0 0 1219 1219"
>
 <defs>
  <style type="text/css">
   <![CDATA[
    .fil1 {fill:#FEFEFE}
    .fil0 {fill:#E15D44}
   ]]>
  </style>
 </defs>
 <g id="Layer_x0020_1">
  <metadata id="CorelCorpID_0Corel-Layer"/>
  <g id="_918836400">
   <rect class="fil0" width="1219" height="1219" rx="182" ry="232"/>
   <path class="fil1" d="M777 867c186,-130 231,-387 100,-573 -2,-3 -4,-5 -6,-8l0 -1c-2,-2 -4,-5 -6,-7l-1 -2c-2,-2 -4,-4 -6,-7l-1 -1c-2,-2 -4,-5 -6,-7l-1 -1c-2,-2 -4,-5 -6,-7l0 -1c-2,-2 -5,-4 -7,-6l0 -1c-2,-2 -4,-4 -6,-6l-1 -1c-3,-2 -5,-4 -7,-6l-1 -2c-2,-2 -4,-4 -6,-5l-2 -2c-2,-2 -4,-4 -6,-5 -1,-1 -1,-1 -2,-2 -2,-1 -4,-3 -6,-5 -1,0 -1,-1 -1,-1 -2,-2 -4,-3 -7,-5 0,0 0,-1 -1,-1 -2,-2 -4,-3 -6,-5 -1,0 -2,-1 -2,-1 -2,-2 -4,-3 -7,-5 0,0 -1,-1 -2,-1 -2,-2 -4,-3 -6,-4 -1,-1 -2,-2 -2,-2 -3,-1 -5,-3 -7,-4 -1,-1 -1,-1 -2,-2 -2,-1 -4,-2 -6,-3 -1,-1 -2,-1 -3,-2 -2,-1 -3,-2 -5,-3 -1,0 -2,-1 -3,-2 -2,-1 -4,-2 -6,-2 -1,-1 -2,-2 -3,-2 -2,-1 -4,-2 -6,-3 -1,-1 -2,-1 -3,-2 -2,-1 -4,-2 -6,-3 -1,0 -2,-1 -3,-1 -2,-1 -3,-2 -5,-2 -2,-1 -3,-2 -5,-3 -1,0 -3,-1 -4,-1 -2,-1 -4,-2 -5,-2 -2,-1 -3,-1 -4,-2 -2,-1 -4,-1 -6,-2 -1,-1 -2,-1 -3,-1 -3,-1 -5,-2 -7,-3 -1,0 -2,0 -3,-1 -2,0 -3,-1 -5,-1 -1,-1 -2,-1 -3,-1 -2,-1 -4,-2 -7,-2 -1,-1 -1,-1 -2,-1 -3,-1 -5,-2 -8,-2l-2 -1c-3,-1 -6,-1 -8,-2l-2 0c-3,-1 -6,-2 -9,-2l-1 0c-9,-2 -18,-4 -26,-5l-1 0c-3,-1 -7,-1 -10,-1l-1 0c-1,-1 -3,-1 -5,-1l0 0 0 0 0 0 -1 0 0 0 -1 0 0 0 -1 0 0 0 -1 -1 0 0 -2 0 0 0 -1 0 0 0 -1 0 0 0c-1,0 -2,0 -4,0l0 0 -2 0 0 0 -1 0 0 0 -3 0 0 0c-7,-1 -15,-1 -23,-1l-1 0 0 0 -1 0 0 0 -1 0 0 0 -1 0 0 0 -2 0 0 0 -1 0 0 0 -1 0 0 0 -1 0 0 0 -1 0 0 0 -2 0 0 0 -1 0 0 0 -1 0 0 0 -1 0 0 0 -2 0 0 0 -1 0 0 0 -1 0 0 0 -1 0 0 0 -1 0 0 0 -2 0 0 0 -1 1 0 0 -1 0 0 0 -1 0 0 0 -1 0 0 0 -2 0 0 0 -1 0 0 0 -1 0 0 0 -1 0 0 0 -1 0 0 0 -2 0 0 0 -1 0 0 0 0 0 0 10 0 130c-42,6 -83,21 -121,47l0 0c-2,2 -3,3 -5,4l0 0c-119,88 -146,255 -61,376 87,123 257,153 380,67 123,-87 153,-257 66,-380 0,-1 -1,-2 -1,-3l-1 0c-1,-2 -2,-4 -3,-5l-1 -1c-1,-1 -2,-3 -3,-4l-1 -2c-1,-1 -2,-2 -3,-3 -1,-1 -2,-2 -3,-3 0,-1 -1,-2 -2,-2 -1,-1 -2,-2 -2,-3 -1,-1 -2,-2 -2,-2 -1,-1 -2,-2 -3,-3l-2 -2c-1,-1 -2,-2 -3,-3l-1 -2c-1,-1 -3,-2 -4,-3l-1 -1c-1,-2 -3,-3 -4,-4l-1 -1c-2,-1 -3,-3 -4,-4l-1 0c-2,-2 -3,-3 -5,-4l0 -1c-2,-1 -3,-2 -5,-3l-1 -1c-1,-1 -3,-2 -4,-3l-1 -1c-2,-1 -3,-2 -5,-3l0 -1c-2,-1 -4,-2 -5,-3l-1 0c-1,-1 -3,-3 -5,-4l0 0c-32,-20 -67,-33 -103,-38l-1 -63c91,12 176,60 233,140 106,151 70,360 -82,466 -69,49 -150,68 -228,59l0 24 0 53c0,14 0,160 0,160 0,22 18,39 39,39 21,0 38,-17 38,-39l1 -160c68,-7 135,-31 195,-73zm-273 -531l2 0 1 0 1 0 0 0 1 -1 1 0 1 0 1 0 1 0 1 0 1 0 0 0 2 -1 1 0 1 0 0 0 2 0 1 0 1 0 2 0 1 -1 0 0 3 0 0 0 1 0 1 0 1 0 1 0 1 0 2 0 0 0 1 0 1 0 2 0 1 0 0 0 1 0 1 0 1 0 0 0 2 0 1 0 1 0 1 0 1 0 1 0 1 0 1 0 1 0 0 0 1 1 2 0 1 0 0 0 1 0 1 0 1 0 0 0 2 0 1 0 0 0 1 1 1 0 1 0 1 0 1 0 1 0 1 0 1 1 0 0 1 0 1 0 1 0 1 0 1 0 1 1 1 0 1 0 2 0c22,5 43,14 63,26l0 0c1,1 3,2 4,3l0 0c1,1 3,1 4,2l0 0c1,1 3,2 4,3l0 0c1,1 2,2 4,3l0 0c1,1 2,2 3,3l1 0c1,1 2,2 3,3l1 0c1,1 2,2 3,3l1 1c0,1 1,2 2,2l1 1c1,1 2,2 3,3l1 1c1,1 1,1 2,2l1 1c1,1 2,2 2,3 1,0 1,1 2,1 0,1 1,1 2,2 0,1 1,1 1,2 1,1 1,1 2,2 0,1 1,2 2,3l1 1c1,1 1,2 2,3l1 0c1,1 1,3 2,4l0 0c1,1 1,1 2,2 62,89 41,212 -48,275 -90,63 -213,41 -275,-48 -62,-88 -42,-209 44,-272l0 0c1,-1 2,-2 4,-3l0 0c24,-17 50,-28 77,-33z"/>
  </g>
 </g>
</svg>
