<?xml version="1.0" encoding="UTF-8"?>
<!DOCTYPE svg PUBLIC "-//W3C//DTD SVG 1.1//EN" "http://www.w3.org/Graphics/SVG/1.1/DTD/svg11.dtd">
<!-- Creator: CorelDRAW X7 -->
<svg xmlns="http://www.w3.org/2000/svg" xml:space="preserve" width="21.6746mm" height="21.6746mm" version="1.1"
	 style="shape-rendering:geometricPrecision; text-rendering:geometricPrecision; image-rendering:optimizeQuality; fill-rule:evenodd; clip-rule:evenodd"
	 viewBox="0 0 2167 2167"
>
 <defs>
  <style type="text/css">
   <![CDATA[
    .fil1 {fill:#FEFEFE}
    .fil0 {fill:#E15D44}
   ]]>
  </style>
 </defs>
 <g id="Layer_x0020_1">
  <metadata id="CorelCorpID_0Corel-Layer"/>
  <g id="_918819312">
   <rect class="fil0" width="2167" height="2167" rx="323" ry="412"/>
   <path class="fil1" d="M1381 1542c331,-232 410,-689 178,-1019 -3,-5 -7,-10 -10,-15l-1 -1c-4,-5 -7,-9 -10,-13l-2 -3c-3,-4 -7,-8 -10,-12l-2 -2c-3,-5 -7,-9 -10,-13l-2 -2c-4,-4 -7,-8 -11,-12l-1 -1c-4,-4 -8,-8 -11,-12l-1 -1c-4,-4 -8,-8 -12,-12l-1 -1c-4,-4 -8,-8 -11,-11l-3 -3c-4,-3 -7,-6 -11,-10l-3 -2c-3,-4 -7,-7 -11,-10 -1,-1 -2,-2 -3,-2 -3,-4 -7,-7 -11,-10 -1,-1 -2,-1 -2,-2 -4,-3 -8,-5 -11,-8 -1,-1 -2,-2 -3,-2 -3,-3 -7,-6 -11,-9 -1,-1 -2,-1 -3,-2 -4,-3 -8,-6 -12,-8 -1,-1 -2,-2 -4,-3 -3,-3 -7,-5 -11,-8 -1,-1 -3,-1 -4,-2 -4,-3 -7,-5 -11,-8 -2,0 -3,-1 -4,-2 -4,-2 -7,-4 -10,-6 -2,-1 -4,-2 -6,-4 -3,-1 -6,-3 -9,-5 -2,-1 -4,-2 -6,-3 -3,-2 -6,-4 -9,-5 -2,-1 -4,-2 -6,-3 -4,-2 -7,-4 -11,-6 -2,-1 -4,-2 -6,-3 -3,-1 -6,-3 -10,-5 -2,-1 -4,-1 -6,-2 -3,-2 -6,-3 -8,-4 -3,-1 -6,-3 -9,-4 -2,-1 -5,-2 -7,-3 -3,-1 -7,-3 -10,-4 -2,-1 -4,-2 -6,-2 -4,-2 -8,-3 -11,-5 -2,0 -4,-1 -6,-2 -4,-1 -8,-3 -12,-4 -2,-1 -4,-1 -5,-2 -3,-1 -6,-2 -9,-2 -1,-1 -3,-2 -4,-2 -5,-1 -9,-3 -14,-4 -1,0 -2,-1 -3,-1 -5,-1 -10,-3 -14,-4l-4 -1c-5,-1 -10,-2 -15,-4l-3 0c-5,-2 -11,-3 -16,-4l-2 0c-15,-4 -31,-6 -47,-8l-1 -1c-5,0 -11,-1 -17,-2l-2 0c-3,0 -6,-1 -9,-1l0 0 0 0 0 0 -2 0 0 0 -2 0 0 0 -2 -1 0 0 -2 0 0 0 -2 0 0 0 -2 0 0 0 -2 0 0 0c-3,0 -5,-1 -7,-1l0 0 -4 0 0 0 -2 0 0 0 -5 0 0 0c-13,-1 -27,-2 -40,-2l-2 0 0 0 -3 0 0 0 -2 0 0 0 -2 0 0 0 -2 0 0 0 -2 0 0 0 -2 0 0 0 -2 1 0 0 -3 0 0 0 -2 0 0 0 -2 0 0 0 -2 0 0 0 -2 0 0 0 -2 0 0 0 -3 0 0 0 -2 0 0 0 -2 0 0 0 -2 0 0 0 -2 0 0 0 -2 1 0 0 -2 0 0 0 -3 0 0 0 -2 0 0 0 -2 0 0 0 -2 0 0 0 -2 0 0 0 -2 1 0 0 -2 0 0 0 -3 0 0 0 -2 0 0 0 0 0 0 18 1 230c-75,10 -149,38 -215,84l0 0c-4,3 -7,5 -11,8l0 0c-210,156 -259,452 -108,668 154,219 457,272 676,118 219,-154 272,-456 118,-676 -1,-1 -2,-3 -3,-4l-1 -1c-2,-3 -4,-6 -6,-9l-1 -1c-2,-2 -4,-5 -6,-8l-2 -2c-2,-2 -4,-5 -5,-7 -2,-1 -3,-3 -4,-4 -1,-2 -3,-3 -4,-5 -2,-1 -3,-3 -5,-5 -1,-1 -2,-2 -3,-3 -2,-2 -3,-4 -5,-6l-3 -3c-2,-2 -4,-4 -6,-6l-2 -2c-2,-2 -4,-4 -7,-6l-2 -2c-2,-3 -4,-5 -7,-7l-2 -2c-2,-2 -5,-4 -7,-6l-2 -1c-2,-3 -5,-5 -8,-7l-1 -1c-3,-2 -5,-5 -8,-7l-1 0c-3,-3 -6,-5 -9,-7l-1 -1c-2,-2 -5,-4 -8,-6l-1 0c-3,-2 -6,-4 -9,-6l-1 -1c-3,-2 -6,-4 -9,-6l-1 0c-56,-35 -119,-58 -183,-68l0 -111c160,20 313,105 413,248 189,269 124,640 -145,829 -123,86 -267,119 -405,104l0 43 0 95c0,24 -1,284 0,284 0,38 30,69 68,69 38,0 69,-31 69,-69l0 -285c121,-12 240,-54 347,-129zm-484 -944l2 -1 2 0 2 0 0 0 2 -1 3 0 1 0 1 0 2 -1 2 0 2 0 0 0 2 -1 2 0 2 0 1 0 4 0 1 -1 1 0 4 0 2 0 0 0 5 0 1 -1 1 0 2 0 2 0 1 0 1 0 5 0 1 0 1 0 2 0 2 0 2 0 0 0 3 0 2 0 0 0 2 0 2 0 2 0 2 0 2 0 3 0 0 0 2 1 2 0 2 0 0 0 2 0 2 0 3 0 0 0 2 1 2 0 2 0 0 0 2 0 2 1 0 0 2 0 2 0 3 0 1 1 1 0 2 0 2 0 2 1 0 0 2 0 2 0 2 1 0 0 3 0 2 1 2 0 2 0 2 1c40,8 78,24 112,45l1 0c2,2 4,3 7,5l0 0c2,2 4,3 7,5l0 0c2,1 4,3 6,4l1 1c2,2 4,3 6,5l1 0c2,2 4,3 6,5l1 1c2,1 4,3 6,4l1 1c2,2 3,3 5,5l2 1c1,2 3,3 5,5l1 2c2,1 3,2 5,4l2 2c1,1 2,3 4,4l2 2c1,1 2,3 4,4 0,1 1,2 2,3 1,1 2,2 3,4 1,1 2,2 3,3 1,1 2,2 3,3 1,2 2,3 4,5l1 2c2,1 3,3 5,5l0 1c2,2 3,4 5,7l0 0c1,1 2,2 3,3 111,159 73,378 -86,489 -159,112 -378,74 -489,-85 -110,-156 -74,-371 78,-484l0 0c3,-2 5,-3 7,-5l1 0c42,-30 90,-49 138,-58z"/>
  </g>
 </g>
</svg>
