<?xml version="1.0" encoding="UTF-8"?>
<!DOCTYPE svg PUBLIC "-//W3C//DTD SVG 1.1//EN" "http://www.w3.org/Graphics/SVG/1.1/DTD/svg11.dtd">
<!-- Creator: CorelDRAW X7 -->
<svg xmlns="http://www.w3.org/2000/svg" xml:space="preserve" width="29.1252mm" height="43.3492mm" version="1.1"
	 style="shape-rendering:geometricPrecision; text-rendering:geometricPrecision; image-rendering:optimizeQuality; fill-rule:evenodd; clip-rule:evenodd"
	 viewBox="0 0 2913 4335"
>
 <defs>
  <style type="text/css">
   <![CDATA[
    .fil1 {fill:#E15D44}
    .fil0 {fill:#E8EFFF}
   ]]>
  </style>
 </defs>
 <g id="Layer_x0020_1">
  <metadata id="CorelCorpID_0Corel-Layer"/>
  <g id="_994531888">
   <path class="fil0" d="M1827 2698c524,-368 651,-1091 283,-1615 -3,-4 -5,-7 -8,-11l-1 -1c-5,-7 -10,-14 -15,-21l-3 -3c-5,-7 -9,-13 -14,-19l-5 -6c-4,-5 -9,-11 -13,-16 -3,-3 -6,-7 -9,-10 -3,-4 -6,-7 -9,-11 -4,-4 -8,-9 -12,-13 -2,-3 -4,-5 -7,-8 -4,-4 -8,-9 -12,-13l-7 -7c-5,-5 -9,-10 -14,-15l-6 -5c-5,-5 -10,-10 -15,-15l-5 -5c-6,-5 -11,-10 -17,-15l-5 -5c-6,-5 -12,-10 -18,-16l-3 -2c-6,-6 -13,-11 -19,-16l-3 -2c-6,-6 -13,-11 -20,-16l-2 -2c-7,-5 -14,-10 -20,-15l-3 -2c-7,-5 -14,-10 -20,-15l-3 -1c-7,-5 -14,-10 -21,-15l-2 -1c-7,-5 -15,-10 -22,-14l-1 -1c-383,-239 -888,-241 -1281,35l0 0c-8,6 -16,11 -24,17l0 0c-504,373 -621,1082 -258,1598 368,523 1091,650 1614,282z"/>
   <path class="fil1" d="M2167 3181c790,-555 981,-1646 426,-2437 -8,-12 -17,-23 -25,-34l-2 -4c-8,-10 -16,-21 -25,-31l-4 -5c-7,-11 -16,-21 -24,-31l-4 -5c-8,-10 -16,-20 -25,-29l-4 -5c-9,-10 -17,-20 -26,-29l-3 -3c-9,-10 -18,-20 -27,-29l-1 -2c-9,-9 -19,-19 -28,-28l-4 -4c-9,-9 -18,-17 -27,-26l-6 -5c-8,-9 -17,-17 -26,-25l-7 -6c-8,-8 -17,-15 -26,-23 -2,-2 -5,-4 -7,-5 -9,-8 -18,-16 -27,-24 -2,-1 -4,-2 -6,-4 -8,-7 -17,-14 -25,-20 -2,-2 -4,-3 -6,-5 -10,-7 -19,-14 -28,-21 -3,-2 -5,-3 -8,-5 -9,-7 -18,-13 -27,-20 -3,-2 -6,-4 -9,-6 -9,-6 -18,-12 -27,-18 -3,-2 -7,-5 -10,-7 -9,-6 -18,-11 -27,-17 -3,-2 -6,-4 -10,-6 -7,-5 -15,-10 -23,-15 -5,-2 -9,-5 -14,-8 -7,-4 -14,-8 -22,-12 -4,-3 -9,-5 -14,-8 -7,-4 -15,-8 -22,-12 -5,-3 -9,-5 -14,-7 -8,-5 -17,-9 -25,-13 -5,-3 -10,-5 -14,-7 -9,-4 -17,-8 -25,-12 -5,-3 -10,-5 -15,-7 -7,-3 -13,-6 -19,-9 -7,-3 -15,-6 -22,-9 -5,-3 -10,-5 -16,-7 -8,-4 -16,-7 -24,-10 -5,-2 -10,-4 -15,-6 -9,-3 -18,-7 -27,-10 -4,-2 -9,-3 -13,-5 -10,-3 -19,-7 -28,-10 -5,-1 -9,-3 -13,-4 -7,-3 -14,-5 -20,-7 -4,-1 -8,-2 -12,-4 -10,-3 -20,-6 -31,-9 -3,-1 -6,-2 -9,-3 -11,-3 -23,-6 -34,-9l-8 -2c-12,-3 -24,-6 -36,-9l-7 -2c-13,-3 -26,-6 -39,-8l-4 -1c-37,-8 -74,-14 -112,-20l-2 0c-14,-2 -28,-4 -42,-5l-4 -1c-7,-1 -14,-1 -21,-2l0 0 0 0 0 0 -5 -1 0 0 -5 0 0 0 -5 -1 0 0 -5 0 0 0 -5 -1 0 0 -5 0 0 0 -6 0 0 0c-5,-1 -10,-1 -15,-2l0 0 -10 0 0 0 -5 -1 0 0 -10 0 0 0c-33,-2 -65,-3 -98,-3l-5 0 0 0 -5 0 0 0 -5 0 0 0 -5 0 0 0 -6 0 0 0 -5 0 0 0 -5 0 0 0 -5 0 0 0 -5 1 0 0 -5 0 0 0 -5 0 0 0 -5 0 0 0 -6 0 0 0 -5 0 0 0 -5 1 0 0 -5 0 0 0 -5 0 0 0 -5 0 0 0 -5 1 0 0 -6 0 0 0 -5 0 0 0 -5 0 0 0 -5 1 0 0 -5 0 0 0 -5 1 0 0 -5 0 0 0 -6 0 0 0 -5 1 0 0 -5 0 0 0 -5 1 0 0 0 0 0 41 1 876c-115,22 -228,67 -330,139 -379,266 -470,789 -204,1168 266,379 789,471 1168,205 379,-267 471,-790 205,-1169 -127,-180 -311,-295 -511,-338l0 -591c384,48 748,252 988,594 451,643 296,1530 -347,1981 -293,206 -638,286 -969,250l0 103 0 226 0 679c0,91 74,164 164,164 90,0 164,-73 164,-164l0 -681c289,-29 575,-130 830,-309z"/>
  </g>
 </g>
</svg>
