<?xml version="1.0" encoding="UTF-8"?>
<!DOCTYPE svg PUBLIC "-//W3C//DTD SVG 1.1//EN" "http://www.w3.org/Graphics/SVG/1.1/DTD/svg11.dtd">
<!-- Creator: CorelDRAW X7 -->
<svg xmlns="http://www.w3.org/2000/svg" xml:space="preserve" width="43.3492mm" height="43.3492mm" version="1.1"
	 style="shape-rendering:geometricPrecision; text-rendering:geometricPrecision; image-rendering:optimizeQuality; fill-rule:evenodd; clip-rule:evenodd"
	 viewBox="0 0 4335 4335"
>
 <defs>
  <style type="text/css">
   <![CDATA[
    .fil0 {fill:#FEFEFE}
    .fil2 {fill:#E15D44}
    .fil1 {fill:#E8EFFF}
   ]]>
  </style>
 </defs>
 <g id="Layer_x0020_1">
  <metadata id="CorelCorpID_0Corel-Layer"/>
  <g id="_1019082352">
   <rect class="fil0" width="4335" height="4335" rx="647" ry="824"/>
   <g>
    <path class="fil1" d="M2478 2611c438,-308 544,-912 236,-1351 -2,-3 -4,-6 -6,-9l-1 -1c-4,-6 -9,-12 -13,-18l-2 -2c-4,-5 -8,-11 -12,-16l-4 -5c-4,-4 -7,-9 -11,-13 -2,-3 -5,-6 -7,-9 -3,-3 -6,-6 -8,-9 -3,-3 -7,-7 -10,-11 -2,-2 -4,-4 -6,-6 -3,-4 -7,-8 -10,-12l-6 -5c-4,-4 -8,-8 -12,-12l-4 -5c-5,-4 -9,-8 -13,-12l-4 -4c-5,-5 -10,-9 -14,-13l-4 -4c-5,-4 -11,-9 -16,-13l-2 -2c-6,-5 -11,-10 -17,-14l-1 -2c-6,-4 -12,-9 -17,-13l-2 -1c-6,-5 -11,-9 -17,-13l-2 -2c-6,-4 -12,-8 -17,-12l-2 -1c-6,-4 -12,-8 -18,-12l-2 -1c-6,-4 -12,-8 -18,-12l-1 -1c-321,-200 -743,-202 -1072,29l0 0c-7,5 -13,10 -20,15l0 0c-421,312 -519,905 -216,1336 308,438 913,544 1351,236z"/>
    <path class="fil2" d="M2762 3015c661,-464 821,-1377 356,-2038 -7,-10 -13,-20 -20,-29l-3 -3c-6,-9 -13,-18 -20,-26l-3 -5c-7,-8 -13,-17 -20,-25l-4 -4c-7,-9 -14,-17 -21,-25l-3 -4c-7,-8 -14,-16 -22,-24l-2 -3c-8,-8 -15,-16 -23,-24l-1 -1c-8,-8 -15,-16 -23,-24l-4 -3c-7,-8 -14,-15 -22,-22l-5 -5c-7,-7 -14,-13 -22,-20l-5 -5c-8,-7 -15,-13 -23,-20 -2,-1 -3,-3 -5,-4 -8,-7 -15,-13 -23,-19 -2,-2 -3,-3 -5,-4 -7,-6 -14,-11 -21,-17 -2,-1 -4,-3 -5,-4 -8,-6 -16,-12 -23,-17 -3,-2 -5,-3 -7,-5 -7,-5 -15,-11 -22,-16 -3,-2 -6,-4 -8,-6 -8,-5 -15,-10 -23,-15 -2,-2 -5,-3 -8,-5 -7,-5 -15,-10 -22,-15 -3,-1 -6,-3 -9,-5 -6,-4 -13,-8 -19,-12 -4,-2 -8,-4 -12,-6 -6,-4 -12,-8 -18,-11 -4,-2 -8,-4 -12,-7 -6,-3 -13,-6 -19,-10 -4,-2 -7,-4 -11,-6 -7,-4 -14,-7 -21,-11 -4,-2 -8,-4 -12,-6 -7,-3 -14,-6 -21,-10 -4,-1 -8,-3 -12,-5 -6,-3 -11,-5 -17,-8 -5,-2 -11,-5 -17,-7 -5,-2 -9,-4 -14,-6 -7,-3 -13,-6 -20,-8 -4,-2 -9,-4 -13,-5 -7,-3 -14,-6 -22,-9 -4,-1 -7,-3 -11,-4 -8,-3 -16,-6 -24,-8 -3,-2 -7,-3 -11,-4 -5,-2 -11,-4 -16,-5 -3,-1 -7,-2 -10,-3 -9,-3 -17,-6 -26,-8 -3,-1 -5,-2 -8,-3 -9,-2 -19,-5 -28,-7l-7 -2c-10,-3 -20,-5 -30,-8l-6 -1c-10,-3 -21,-5 -32,-7l-4 -1c-31,-6 -62,-12 -93,-16l-2 -1c-12,-1 -24,-3 -36,-4l-2 0c-6,-1 -12,-2 -18,-2l0 0 0 0 0 0 -4 -1 0 0 -5 0 0 0 -4 -1 0 0 -4 0 0 0 -4 0 0 0 -5 -1 0 0 -4 0 0 0c-4,0 -8,-1 -13,-1l0 0 -8 -1 0 0 -5 0 0 0 -8 0 0 0c-27,-2 -54,-3 -82,-3l-4 0 0 0 -4 0 0 0 -4 0 0 0 -5 0 0 0 -4 0 0 0 -4 0 0 0 -5 0 0 0 -4 1 0 0 -4 0 0 0 -5 0 0 0 -4 0 0 0 -4 0 0 0 -4 0 0 0 -5 0 0 0 -4 1 0 0 -4 0 0 0 -5 0 0 0 -4 0 0 0 -4 0 0 0 -5 1 0 0 -4 0 0 0 -4 0 0 0 -4 0 0 0 -5 1 0 0 -4 0 0 0 -4 0 0 0 -5 1 0 0 -4 0 0 0 -4 0 0 0 -4 1 0 0 0 0 0 35 1 733c-97,17 -191,55 -277,115 -317,223 -393,661 -171,978 223,317 661,394 978,171 317,-223 394,-660 171,-978 -106,-150 -260,-246 -427,-282l-1 -495c322,40 626,211 827,497 378,538 248,1280 -290,1657 -246,173 -534,239 -811,209l0 86 0 189 0 569 1 0c0,75 61,137 137,137 75,0 136,-62 136,-137l1 0 0 -570c242,-24 481,-109 694,-259z"/>
   </g>
  </g>
 </g>
</svg>
