<?xml version="1.0" encoding="UTF-8"?>
<!DOCTYPE svg PUBLIC "-//W3C//DTD SVG 1.1//EN" "http://www.w3.org/Graphics/SVG/1.1/DTD/svg11.dtd">
<!-- Creator: CorelDRAW X7 -->
<svg xmlns="http://www.w3.org/2000/svg" xml:space="preserve" width="43.3492mm" height="43.3492mm" version="1.1"
	 style="shape-rendering:geometricPrecision; text-rendering:geometricPrecision; image-rendering:optimizeQuality; fill-rule:evenodd; clip-rule:evenodd"
	 viewBox="0 0 4335 4335"
>
 <defs>
  <style type="text/css">
   <![CDATA[
    .fil1 {fill:#FEFEFE}
    .fil0 {fill:#E15D44}
   ]]>
  </style>
 </defs>
 <g id="Layer_x0020_1">
  <metadata id="CorelCorpID_0Corel-Layer"/>
  <g id="_1063484160">
   <rect class="fil0" width="4335" height="4335" rx="647" ry="824"/>
   <path class="fil1" d="M2762 3084c661,-465 821,-1378 356,-2039 -7,-10 -13,-19 -20,-29l-3 -2c-6,-9 -13,-18 -20,-27l-3 -4c-7,-9 -13,-17 -20,-25l-4 -5c-7,-8 -14,-16 -21,-24l-3 -4c-7,-9 -15,-17 -22,-25l-2 -3c-8,-8 -15,-16 -23,-23l-1 -2c-8,-8 -15,-16 -23,-23l-4 -4c-7,-7 -14,-14 -22,-22l-5 -4c-7,-7 -14,-14 -22,-21l-5 -4c-8,-7 -15,-14 -23,-20 -2,-2 -3,-3 -5,-5 -8,-6 -15,-12 -23,-19 -2,-1 -3,-2 -5,-3 -7,-6 -14,-12 -21,-17 -2,-2 -4,-3 -5,-4 -8,-6 -16,-12 -23,-18 -3,-1 -5,-3 -7,-5 -7,-5 -15,-10 -22,-16 -3,-2 -6,-3 -8,-5 -8,-5 -15,-10 -23,-15 -2,-2 -5,-4 -8,-6 -7,-5 -15,-9 -22,-14 -3,-2 -6,-4 -9,-5 -6,-4 -13,-8 -19,-12 -4,-3 -8,-5 -12,-7 -6,-4 -12,-7 -18,-10 -4,-3 -8,-5 -12,-7 -6,-4 -13,-7 -19,-10 -4,-2 -7,-4 -11,-6 -7,-4 -14,-8 -21,-11 -4,-2 -8,-4 -12,-6 -7,-3 -14,-7 -21,-10 -4,-2 -8,-4 -12,-6 -6,-2 -11,-5 -17,-7 -6,-3 -11,-5 -17,-8 -5,-2 -9,-4 -14,-6 -7,-3 -13,-5 -20,-8 -4,-2 -9,-3 -13,-5 -7,-3 -14,-6 -22,-8 -4,-2 -7,-3 -11,-5 -8,-2 -16,-5 -24,-8 -3,-1 -7,-2 -11,-4 -5,-1 -11,-3 -16,-5 -3,-1 -7,-2 -10,-3 -9,-3 -17,-5 -26,-8 -3,-1 -5,-1 -8,-2 -9,-3 -19,-5 -28,-8l-7 -2c-10,-2 -20,-5 -30,-7l-6 -2c-10,-2 -21,-5 -32,-7l-4 -1c-31,-6 -62,-11 -93,-16l-2 0c-12,-2 -24,-3 -36,-5l-2 0c-6,-1 -12,-1 -18,-2l0 0 0 0 0 0 -4 0 0 0 -5 -1 0 0 -4 0 0 0 -4 -1 0 0 -4 0 0 0 -5 0 0 0 -4 -1 0 0c-4,0 -8,0 -13,-1l0 0 -8 0 0 0 -5 0 0 0 -8 -1 0 0c-27,-2 -54,-2 -82,-2l-4 0 0 0 -4 0 0 0 -4 0 0 0 -5 0 0 0 -4 0 0 0 -4 0 0 0 -5 0 0 0 -4 0 0 0 -4 0 0 0 -5 0 0 0 -4 0 0 0 -4 1 0 0 -4 0 0 0 -5 0 0 0 -4 0 0 0 -4 0 0 0 -5 0 0 0 -4 1 0 0 -4 0 0 0 -5 0 0 0 -4 0 0 0 -4 1 0 0 -4 0 0 0 -5 0 0 0 -4 0 0 0 -4 1 0 0 -5 0 0 0 -4 0 0 0 -4 1 0 0 -4 0 0 0 0 0 0 35 0 462c-150,19 -297,75 -430,168l0 0c-7,4 -13,9 -20,14l0 0c-421,312 -519,905 -216,1336 308,439 913,545 1351,237 438,-308 544,-913 236,-1351 -2,-3 -4,-6 -6,-9l-1 -2c-4,-5 -9,-11 -13,-17l-2 -3c-4,-5 -8,-10 -12,-15l-4 -6c-4,-4 -7,-8 -11,-13 -2,-2 -5,-5 -7,-8 -3,-3 -6,-6 -8,-9 -3,-4 -7,-8 -10,-11 -2,-2 -4,-5 -6,-7 -3,-4 -7,-7 -10,-11l-6 -6c-4,-4 -8,-8 -12,-12l-4 -5c-5,-4 -9,-8 -13,-12l-4 -4c-5,-4 -10,-9 -14,-13l-4 -3c-5,-5 -11,-9 -16,-14l-2 -2c-6,-5 -11,-9 -17,-14l-2 -1c-5,-5 -11,-9 -16,-13l-2 -2c-6,-4 -11,-8 -17,-13l-2 -1c-6,-4 -12,-8 -17,-12l-2 -2c-6,-4 -12,-8 -18,-12l-2 -1c-6,-4 -12,-8 -18,-12l-1 0c-113,-71 -238,-117 -367,-136l-1 -222c322,40 626,210 827,496 378,538 248,1280 -290,1658 -246,172 -534,239 -811,209l0 86 0 189c0,48 0,568 1,568 0,76 61,137 137,137 75,0 136,-61 136,-137l1 -570c242,-24 481,-109 694,-258zm-968 -1889l4 0 4 -1 4 -1 0 0 5 -1 4 0 4 -1 0 0 5 0 4 -1 3 0 1 -1 5 0 4 -1 3 0 1 0 9 -1 3 0 1 0 9 -1 2 0 2 0 9 -1 2 0 2 0 4 0 5 -1 2 0 2 0 9 0 1 0 3 0 4 0 4 0 4 0 1 0 4 0 4 0 2 0 3 0 4 0 4 0 5 1 4 0 4 0 1 0 4 0 4 0 4 1 0 0 4 0 5 0 4 1 0 0 4 0 5 1 4 0 0 0 4 1 4 0 1 0 4 1 4 0 4 1 4 0 0 0 5 1 4 1 3 0 1 0 4 1 5 1 3 0 1 0 4 1 4 1 5 1 4 1 4 1c79,17 155,47 225,91l0 0c5,3 10,6 14,9l1 0c4,3 9,6 13,9l1 1c5,3 9,6 13,9l1 1c5,3 9,6 13,9l1 1c4,3 8,7 12,10l2 1c4,3 8,7 12,10l1 1c4,4 8,7 11,10l3 3c4,3 7,6 10,9l3 3c4,3 7,6 10,9l3 3c3,3 6,6 9,9l4 4c2,3 5,6 7,8 2,2 3,4 5,5 2,3 4,5 7,8 2,2 3,4 5,7 2,2 4,4 6,6 2,3 5,6 7,9l3 4c3,4 6,8 9,12l2 1c3,5 6,9 9,13l1 1c1,2 3,4 4,7 223,317 147,755 -171,978 -317,223 -755,146 -978,-171 -219,-313 -149,-742 156,-968l0 0c5,-3 10,-7 15,-10l0 -1c86,-60 180,-98 277,-116z"/>
  </g>
 </g>
</svg>
