<?xml version="1.0" encoding="UTF-8"?>
<!DOCTYPE svg PUBLIC "-//W3C//DTD SVG 1.1//EN" "http://www.w3.org/Graphics/SVG/1.1/DTD/svg11.dtd">
<!-- Creator: CorelDRAW X7 -->
<svg xmlns="http://www.w3.org/2000/svg" xml:space="preserve" width="29.1252mm" height="43.3492mm" version="1.1"
	 style="shape-rendering:geometricPrecision; text-rendering:geometricPrecision; image-rendering:optimizeQuality; fill-rule:evenodd; clip-rule:evenodd"
	 viewBox="0 0 2913 4335"
>
 <defs>
  <style type="text/css">
   <![CDATA[
    .fil0 {fill:#E15D44}
   ]]>
  </style>
 </defs>
 <g id="Layer_x0020_1">
  <metadata id="CorelCorpID_0Corel-Layer"/>
  <path class="fil0" d="M2167 3182c791,-556 982,-1648 427,-2439 -9,-12 -17,-23 -25,-34l-3 -4c-8,-11 -16,-21 -24,-32l-4 -5c-8,-10 -16,-20 -24,-30l-4 -5c-8,-10 -17,-20 -25,-29l-4 -5c-9,-10 -17,-20 -26,-30l-3 -3c-9,-9 -18,-19 -27,-28l-2 -2c-9,-10 -18,-19 -27,-28l-4 -4c-9,-9 -18,-18 -27,-26l-6 -6c-9,-8 -17,-16 -26,-24l-7 -6c-9,-8 -18,-16 -27,-24 -2,-1 -4,-3 -6,-5 -9,-8 -18,-15 -28,-23 -1,-1 -3,-3 -5,-4 -9,-7 -17,-14 -26,-21 -2,-1 -4,-3 -6,-4 -9,-7 -18,-14 -28,-21 -2,-2 -5,-4 -7,-6 -9,-6 -18,-13 -27,-19 -3,-2 -7,-4 -10,-7 -9,-6 -17,-12 -26,-18 -4,-2 -7,-4 -10,-6 -9,-6 -18,-12 -27,-17 -3,-3 -7,-5 -10,-7 -8,-4 -16,-9 -24,-14 -4,-3 -9,-5 -13,-8 -8,-4 -15,-8 -22,-13 -5,-2 -10,-5 -14,-8 -8,-4 -15,-8 -23,-12 -5,-2 -9,-5 -14,-7 -8,-4 -16,-9 -24,-13 -5,-2 -10,-5 -15,-7 -8,-4 -16,-8 -25,-12 -5,-2 -10,-5 -15,-7 -6,-3 -13,-6 -19,-9 -7,-3 -14,-6 -21,-9 -6,-2 -11,-5 -16,-7 -9,-3 -17,-6 -25,-10 -5,-2 -10,-4 -15,-6 -9,-3 -17,-6 -26,-10 -5,-1 -9,-3 -14,-5 -9,-3 -19,-6 -28,-10 -4,-1 -9,-3 -13,-4 -7,-2 -13,-4 -20,-7 -4,-1 -8,-2 -12,-3 -10,-3 -20,-7 -31,-10 -3,-1 -6,-1 -9,-2 -11,-4 -22,-7 -34,-10l-8 -2c-12,-3 -24,-6 -36,-9l-7 -1c-13,-3 -26,-6 -39,-9l-4 -1c-37,-8 -74,-14 -112,-19l-2 -1c-14,-2 -28,-3 -42,-5l-4 -1c-7,0 -14,-1 -21,-2l0 0 0 0 0 0 -5 0 0 0 -5 -1 0 0 -5 0 0 0 -5 -1 0 0 -5 0 -1 0 -5 -1 0 0 -5 0 0 0c-5,-1 -10,-1 -15,-1l0 0 -10 -1 0 0 -5 0 0 0 -11 -1 0 0c-32,-2 -65,-3 -97,-3l-5 0 0 0 -5 0 0 0 -6 0 0 0 -5 0 0 0 -5 0 0 0 -5 0 0 0 -5 1 0 0 -5 0 0 0 -5 0 0 0 -5 0 0 0 -6 0 0 0 -5 0 0 0 -5 0 0 0 -5 1 0 0 -5 0 0 0 -5 0 0 0 -5 0 0 0 -6 1 0 0 -5 0 0 0 -5 0 0 0 -5 0 0 0 -5 1 0 0 -5 0 0 0 -5 0 0 0 -6 1 0 0 -5 0 0 0 -5 1 0 0 -5 0 0 0 -5 0 0 0 -5 1 0 0 0 0 0 42 1 552c-180,23 -356,89 -515,201l0 0c-8,6 -16,11 -24,17l0 0c-504,373 -621,1083 -258,1599 368,524 1091,651 1616,282 524,-368 651,-1091 282,-1616 -2,-3 -5,-7 -7,-11l-1 -1c-6,-7 -11,-14 -16,-21l-2 -3c-5,-6 -10,-13 -15,-19l-5 -6c-4,-5 -8,-11 -13,-16 -2,-3 -5,-7 -8,-10 -3,-4 -7,-7 -10,-11 -4,-4 -7,-9 -11,-13 -3,-3 -5,-5 -7,-8 -5,-4 -9,-9 -13,-13l-7 -7c-4,-5 -9,-10 -14,-15l-5 -5c-5,-5 -11,-10 -16,-15l-5 -5c-5,-5 -11,-10 -16,-15l-5 -5c-6,-5 -12,-10 -19,-16l-2 -2c-7,-6 -13,-11 -20,-16l-2 -2c-7,-6 -14,-11 -20,-16l-3 -2c-6,-5 -13,-10 -20,-15l-2 -2c-7,-5 -14,-10 -21,-15l-2 -1c-7,-5 -15,-10 -22,-15l-2 -1c-7,-5 -14,-10 -22,-14l-1 -1c-135,-84 -284,-139 -439,-163l-1 -265c385,48 749,252 990,594 451,643 296,1531 -347,1983 -294,206 -639,286 -971,250l0 103 0 226c0,57 0,680 1,680 0,90 73,164 164,164 90,0 164,-74 164,-164l0 -682c289,-29 575,-130 830,-309zm-1158 -2259l5 -1 5 -1 5 -1 0 0 6 -1 5 -1 4 0 1 0 5 -1 5 -1 4 0 1 0 5 -1 6 -1 3 0 2 0 10 -1 3 -1 2 0 10 -1 3 0 3 0 10 -1 3 0 2 0 5 0 5 0 3 0 3 -1 10 0 2 0 3 0 5 0 5 0 5 0 1 0 5 0 5 0 1 0 4 0 5 0 5 0 5 1 6 0 5 0 1 0 4 0 5 1 5 0 1 0 4 0 5 1 6 0 0 0 5 1 5 0 5 1 0 0 5 0 5 1 1 0 4 1 5 0 5 1 5 1 1 0 5 1 5 0 4 1 1 0 5 1 5 1 4 0 1 1 5 1 5 1 5 1 5 1 5 1c95,20 186,57 269,109l1 0c5,3 11,7 16,10l2 1c5,4 10,7 15,11l2 1c5,3 10,7 15,11l1 1c5,3 10,7 15,11l2 1c5,4 9,8 14,12l2 1c5,4 10,8 14,12l2 2c5,3 9,7 14,11l3 3c4,4 8,8 12,12l4 3c3,4 7,7 11,11l4 4c3,3 7,7 10,10l5 5c3,3 6,7 9,10 2,2 4,4 5,6 3,3 6,6 9,9 2,3 4,5 6,8 3,2 5,5 7,8 3,3 6,7 9,11l4 4c3,5 7,9 10,14l2 2c4,5 7,10 11,15l1 1c2,3 4,6 5,8 267,380 175,904 -204,1171 -380,266 -904,175 -1170,-205 -263,-374 -178,-887 187,-1158l0 0c5,-4 11,-8 17,-12l0 0c103,-72 216,-118 331,-139z"/>
 </g>
</svg>
