<?xml version="1.0" encoding="UTF-8"?>
<!DOCTYPE svg PUBLIC "-//W3C//DTD SVG 1.1//EN" "http://www.w3.org/Graphics/SVG/1.1/DTD/svg11.dtd">
<!-- Creator: CorelDRAW X7 -->
<svg xmlns="http://www.w3.org/2000/svg" xml:space="preserve" width="86.6986mm" height="28.9558mm" version="1.1" style="shape-rendering:geometricPrecision; text-rendering:geometricPrecision; image-rendering:optimizeQuality; fill-rule:evenodd; clip-rule:evenodd"
viewBox="0 0 8670 2896"
 xmlns:xlink="http://www.w3.org/1999/xlink">
 <defs>
  <style type="text/css">
   <![CDATA[
    .fil1 {fill:#E15D44}
    .fil0 {fill:#E8EFFF}
    .fil2 {fill:#E15D44;fill-rule:nonzero}
   ]]>
  </style>
 </defs>
 <g id="Layer_x0020_1">
  <metadata id="CorelCorpID_0Corel-Layer"/>
  <g id="_918838160">
   <path class="fil0" d="M1220 1802c351,-246 435,-729 189,-1080 -2,-2 -3,-5 -5,-7l-1 -1c-3,-5 -7,-9 -10,-14l-2 -2c-3,-4 -6,-8 -9,-13l-4 -4c-2,-3 -5,-7 -8,-10 -2,-2 -4,-5 -6,-7 -2,-2 -4,-5 -6,-7 -3,-3 -5,-6 -8,-9 -2,-2 -3,-4 -5,-5 -3,-3 -5,-6 -8,-9l-5 -5c-3,-3 -6,-6 -9,-10l-4 -3c-3,-4 -7,-7 -10,-10l-3 -3c-4,-4 -8,-7 -12,-11l-3 -3c-4,-3 -8,-7 -12,-10l-2 -2c-4,-4 -9,-7 -13,-11l-2 -1c-4,-4 -9,-7 -13,-11l-2 -1c-4,-3 -9,-7 -13,-10l-2 -1c-4,-4 -9,-7 -14,-10l-1 -1c-5,-3 -10,-7 -14,-10l-2 -1c-5,-3 -10,-6 -15,-9l0 -1c-256,-160 -594,-161 -857,23l0 1c-6,3 -11,7 -16,11l0 0c-337,250 -415,724 -173,1069 246,350 730,435 1080,188z"/>
   <path class="fil1" d="M1447 2125c529,-371 657,-1101 285,-1629 -5,-8 -11,-16 -16,-23l-2 -3c-5,-7 -11,-14 -16,-21l-3 -3c-5,-7 -11,-14 -16,-20l-3 -4c-5,-7 -11,-13 -16,-20l-3 -3c-6,-6 -12,-13 -18,-19l-2 -3c-5,-6 -11,-12 -17,-19l-2 -1c-6,-6 -12,-12 -18,-19l-3 -2c-6,-6 -12,-12 -18,-18l-4 -3c-5,-6 -11,-11 -17,-17l-5 -4c-6,-5 -11,-10 -18,-15 -1,-1 -2,-3 -4,-4 -6,-5 -12,-10 -18,-15 -1,-1 -3,-2 -4,-3 -6,-5 -11,-9 -17,-14 -1,-1 -3,-2 -4,-3 -6,-5 -12,-9 -19,-14 -1,-1 -3,-2 -5,-4 -6,-4 -12,-8 -18,-12 -2,-2 -4,-3 -6,-5 -6,-4 -12,-8 -18,-12 -2,-1 -4,-3 -7,-4 -6,-4 -12,-8 -18,-12 -2,-1 -4,-3 -6,-4 -5,-3 -11,-6 -16,-10 -3,-1 -6,-3 -9,-5 -5,-3 -10,-6 -15,-8 -3,-2 -6,-4 -9,-6 -5,-2 -10,-5 -15,-8 -3,-1 -6,-3 -9,-5 -6,-3 -11,-5 -17,-8 -3,-2 -6,-3 -10,-5 -5,-3 -11,-5 -16,-8 -4,-2 -7,-3 -10,-5 -5,-2 -9,-4 -13,-5 -5,-3 -10,-5 -14,-7 -4,-1 -8,-3 -11,-4 -6,-2 -11,-5 -16,-7 -4,-1 -7,-3 -11,-4 -5,-2 -11,-4 -17,-7 -3,-1 -6,-2 -9,-3 -7,-2 -13,-4 -19,-7 -3,-1 -6,-2 -9,-3 -4,-1 -9,-2 -13,-4 -3,-1 -5,-1 -8,-2 -7,-2 -14,-5 -21,-7 -2,0 -4,-1 -6,-1 -7,-3 -15,-5 -22,-7l-6 -1c-8,-2 -16,-4 -24,-6l-4 -1c-9,-2 -18,-4 -27,-6l-2 -1c-25,-5 -50,-9 -75,-13l-2 0c-9,-1 -19,-2 -28,-3l-2 -1c-5,0 -10,-1 -14,-1l0 0 0 0 0 0 -4 -1 0 0 -3 0 0 0 -4 0 0 0 -3 0 0 0 -3 -1 0 0 -4 0 0 0 -3 0 0 0c-4,-1 -7,-1 -10,-1l0 0 -7 -1 0 0 -4 0 0 0 -7 0 0 0c-21,-1 -43,-2 -65,-2l-3 0 0 0 -4 0 0 0 -3 0 0 0 -3 0 0 0 -4 0 0 0 -3 0 0 0 -4 0 0 0 -3 0 0 0 -4 0 0 0 -3 0 0 0 -3 0 0 0 -4 1 0 0 -3 0 0 0 -4 0 0 0 -3 0 0 0 -4 0 0 0 -3 0 0 0 -4 0 0 0 -3 1 0 0 -3 0 0 0 -4 0 0 0 -3 0 0 0 -4 0 0 0 -3 1 0 0 -4 0 0 0 -3 0 0 0 -3 0 0 0 -4 1 0 0 -3 0 0 0 -4 0 0 0 0 0 0 28 1 586c-77,14 -152,45 -221,93 -253,178 -314,528 -136,781 178,254 528,315 781,137 254,-178 315,-528 137,-781 -85,-121 -208,-198 -341,-226l-1 -396c257,32 500,169 661,397 302,430 198,1023 -232,1325 -196,138 -427,191 -648,168l0 68 0 151 0 455c0,61 49,110 110,110 60,0 109,-49 109,-110l1 -456c193,-19 384,-87 554,-207z"/>
   <polygon class="fil2" points="8160,1858 8160,1036 8666,1036 8666,1206 8350,1206 8350,1354 8621,1354 8621,1523 8350,1523 8350,1685 8671,1685 8671,1858 "/>
   <path class="fil2" d="M7420 1858l0 -822 211 0c68,0 120,5 158,14 37,8 70,23 99,44 30,22 54,49 71,81 17,33 25,67 25,103 0,51 -13,97 -39,136 -27,38 -65,69 -114,91l251 353 -224 0 -220 -323 -28 0 0 323 -190 0zm223 -672l-33 0 0 228 42 0c49,0 87,-11 113,-30 26,-20 39,-49 39,-87 0,-39 -12,-67 -38,-85 -25,-17 -66,-26 -123,-26z"/>
   <path class="fil2" d="M6811 1036l0 452c0,72 14,127 40,163 27,36 67,54 122,54 52,0 92,-17 119,-51 27,-33 41,-82 41,-146l0 -472 175 0 0 472c0,118 -30,211 -91,278 -61,66 -145,99 -254,99 -109,0 -194,-33 -255,-99 -60,-66 -91,-158 -91,-277l0 -473 194 0z"/>
   <polygon class="fil2" points="6075,1858 6075,1208 5814,1208 5814,1036 6531,1036 6531,1208 6271,1208 6271,1858 "/>
   <polygon class="fil2" points="5520,1858 5520,1036 5716,1036 5716,1858 "/>
   <polygon class="fil2" points="4967,1858 4967,1208 4706,1208 4706,1036 5423,1036 5423,1208 5163,1208 5163,1858 "/>
   <path class="fil2" d="M4060 1858l0 -822 211 0c68,0 121,5 158,14 37,8 70,23 99,44 31,22 54,49 71,81 17,33 25,67 25,103 0,51 -13,97 -39,136 -26,38 -64,69 -114,91l251 353 -224 0 -220 -323 -28 0 0 323 -190 0zm223 -672l-33 0 0 228 42 0c49,0 87,-11 113,-30 26,-20 39,-49 39,-87 0,-39 -12,-67 -38,-85 -25,-17 -66,-26 -123,-26z"/>
   <path class="fil2" d="M3157 1858l419 -847 12 0 411 847 -206 0 -52 -119 -334 0 -53 119 -197 0zm307 -261l216 0 -106 -257 -110 257z"/>
   <path class="fil2" d="M2678 1858l0 -822 212 0c65,0 117,5 155,14 38,10 72,26 101,48 31,22 55,50 71,84 17,33 26,68 26,106 0,83 -30,149 -89,198 -59,48 -140,73 -241,73 -10,0 -18,0 -24,0 -5,-1 -10,-1 -14,-1l0 300 -197 0zm223 -671l-26 0 0 220 35 0c50,0 87,-10 114,-29 26,-19 39,-47 39,-82 0,-38 -13,-65 -39,-83 -26,-17 -67,-26 -123,-26z"/>
  </g>
 </g>
</svg>
